<svg width="218" height="83" viewBox="0 0 218 83" fill="none" xmlns="http://www.w3.org/2000/svg">
<path d="M21 3H3V80H21" stroke="#581C87" stroke-width="5" stroke-linecap="round" stroke-linejoin="round"/>
<path d="M22.6435 32.0909H27.5739L32.7812 44.7955H33.0028L38.2102 32.0909H43.1406V51H39.2628V38.6925H39.1058L34.2124 50.9077H31.5717L26.6783 38.6463H26.5213V51H22.6435V32.0909ZM50.4047 51.2678C49.4998 51.2678 48.6935 51.1108 47.9856 50.7969C47.2778 50.4768 46.7176 50.0059 46.3052 49.3842C45.899 48.7564 45.6958 47.9747 45.6958 47.0391C45.6958 46.2512 45.8405 45.5895 46.1298 45.054C46.4191 44.5185 46.813 44.0876 47.3116 43.7614C47.8102 43.4351 48.3765 43.1889 49.0105 43.0227C49.6506 42.8565 50.3216 42.7396 51.0233 42.6719C51.8481 42.5857 52.5128 42.5057 53.0176 42.4318C53.5223 42.3518 53.8886 42.2348 54.1163 42.081C54.344 41.9271 54.4579 41.6993 54.4579 41.3977V41.3423C54.4579 40.7576 54.2733 40.3052 53.9039 39.9851C53.5408 39.665 53.0237 39.505 52.3528 39.505C51.6449 39.505 51.0817 39.6619 50.6632 39.9759C50.2446 40.2836 49.9676 40.6714 49.8322 41.1392L46.1944 40.8438C46.3791 39.982 46.7422 39.2372 47.2839 38.6094C47.8256 37.9754 48.5242 37.4891 49.3798 37.1506C50.2415 36.8059 51.2387 36.6335 52.3713 36.6335C53.1592 36.6335 53.9132 36.7259 54.6333 36.9105C55.3597 37.0952 56.0029 37.3814 56.563 37.7692C57.1293 38.157 57.5756 38.6555 57.9018 39.2649C58.228 39.8681 58.3912 40.5914 58.3912 41.4347V51H54.661V49.0334H54.5502C54.3225 49.4766 54.0178 49.8674 53.6362 50.206C53.2546 50.5384 52.796 50.8 52.2605 50.9908C51.725 51.1754 51.1064 51.2678 50.4047 51.2678ZM51.5311 48.5533C52.1097 48.5533 52.6206 48.4394 53.0637 48.2116C53.5069 47.9777 53.8547 47.6638 54.1071 47.2699C54.3594 46.8759 54.4856 46.4297 54.4856 45.9311V44.4261C54.3625 44.5062 54.1932 44.58 53.9778 44.6477C53.7685 44.7093 53.5315 44.7678 53.2669 44.8232C53.0022 44.8724 52.7375 44.9186 52.4728 44.9616C52.2082 44.9986 51.9681 45.0324 51.7527 45.0632C51.291 45.1309 50.8878 45.2386 50.5431 45.3864C50.1984 45.5341 49.9307 45.7341 49.7399 45.9865C49.5491 46.2327 49.4537 46.5405 49.4537 46.9098C49.4537 47.4453 49.6475 47.8546 50.0353 48.1378C50.4293 48.4148 50.9279 48.5533 51.5311 48.5533ZM65.3759 42.8011V51H61.4426V36.8182H65.1912V39.3203H65.3574C65.6713 38.4955 66.1976 37.843 66.9363 37.3629C67.6749 36.8767 68.5705 36.6335 69.623 36.6335C70.6079 36.6335 71.4666 36.849 72.199 37.2798C72.9315 37.7107 73.5009 38.3262 73.9071 39.1264C74.3134 39.9205 74.5165 40.8684 74.5165 41.9702V51H70.5833V42.6719C70.5894 41.804 70.3678 41.1269 69.9185 40.6406C69.4692 40.1482 68.8506 39.902 68.0627 39.902C67.5333 39.902 67.0655 40.0159 66.6593 40.2436C66.2592 40.4714 65.9453 40.8037 65.7175 41.2408C65.4959 41.6716 65.382 42.1918 65.3759 42.8011ZM84.0241 51.277C82.59 51.277 81.3497 50.9723 80.3033 50.3629C79.263 49.7474 78.4598 48.8918 77.8935 47.7962C77.3272 46.6944 77.044 45.4171 77.044 43.9645C77.044 42.4995 77.3272 41.2192 77.8935 40.1236C78.4598 39.0218 79.263 38.1662 80.3033 37.5568C81.3497 36.9413 82.59 36.6335 84.0241 36.6335C85.4583 36.6335 86.6955 36.9413 87.7358 37.5568C88.7822 38.1662 89.5885 39.0218 90.1548 40.1236C90.7211 41.2192 91.0043 42.4995 91.0043 43.9645C91.0043 45.4171 90.7211 46.6944 90.1548 47.7962C89.5885 48.8918 88.7822 49.7474 87.7358 50.3629C86.6955 50.9723 85.4583 51.277 84.0241 51.277ZM84.0426 48.2301C84.6951 48.2301 85.2398 48.0455 85.6768 47.6761C86.1139 47.3007 86.4432 46.7898 86.6648 46.1435C86.8925 45.4972 87.0064 44.7616 87.0064 43.9368C87.0064 43.112 86.8925 42.3764 86.6648 41.7301C86.4432 41.0838 86.1139 40.5729 85.6768 40.1974C85.2398 39.822 84.6951 39.6342 84.0426 39.6342C83.384 39.6342 82.83 39.822 82.3807 40.1974C81.9375 40.5729 81.602 41.0838 81.3743 41.7301C81.1527 42.3764 81.0419 43.112 81.0419 43.9368C81.0419 44.7616 81.1527 45.4972 81.3743 46.1435C81.602 46.7898 81.9375 47.3007 82.3807 47.6761C82.83 48.0455 83.384 48.2301 84.0426 48.2301ZM100.025 51.277C98.5661 51.277 97.3104 50.9815 96.2578 50.3906C95.2114 49.7936 94.4051 48.9503 93.8388 47.8608C93.2725 46.7652 92.9893 45.4695 92.9893 43.9737C92.9893 42.5149 93.2725 41.2346 93.8388 40.1328C94.4051 39.031 95.2022 38.1723 96.2301 37.5568C97.2642 36.9413 98.4768 36.6335 99.8679 36.6335C100.804 36.6335 101.674 36.7843 102.481 37.0859C103.293 37.3814 104.001 37.8277 104.604 38.4247C105.214 39.0218 105.688 39.7727 106.026 40.6776C106.365 41.5762 106.534 42.6288 106.534 43.8352V44.9155H94.5589V42.478H102.832C102.832 41.9117 102.709 41.41 102.462 40.973C102.216 40.536 101.875 40.1944 101.438 39.9482C101.007 39.6958 100.505 39.5696 99.9325 39.5696C99.3355 39.5696 98.8061 39.7081 98.3445 39.9851C97.889 40.2559 97.532 40.6222 97.2734 41.0838C97.0149 41.5393 96.8826 42.0471 96.8764 42.6072V44.9247C96.8764 45.6264 97.0057 46.2327 97.2642 46.7436C97.5289 47.2545 97.9013 47.6484 98.3814 47.9254C98.8615 48.2024 99.4309 48.3409 100.089 48.3409C100.527 48.3409 100.927 48.2794 101.29 48.1562C101.653 48.0331 101.964 47.8485 102.222 47.6023C102.481 47.3561 102.678 47.0545 102.813 46.6974L106.451 46.9375C106.266 47.8116 105.888 48.5748 105.315 49.2273C104.749 49.8736 104.017 50.3783 103.118 50.7415C102.225 51.0985 101.194 51.277 100.025 51.277ZM113.034 32.0909V51H109.101V32.0909H113.034ZM122.276 51V32.0909H126.274V47.7038H134.381V51H122.276ZM143.362 51.277C141.928 51.277 140.688 50.9723 139.641 50.3629C138.601 49.7474 137.798 48.8918 137.231 47.7962C136.665 46.6944 136.382 45.4171 136.382 43.9645C136.382 42.4995 136.665 41.2192 137.231 40.1236C137.798 39.0218 138.601 38.1662 139.641 37.5568C140.688 36.9413 141.928 36.6335 143.362 36.6335C144.796 36.6335 146.033 36.9413 147.074 37.5568C148.12 38.1662 148.926 39.0218 149.493 40.1236C150.059 41.2192 150.342 42.4995 150.342 43.9645C150.342 45.4171 150.059 46.6944 149.493 47.7962C148.926 48.8918 148.12 49.7474 147.074 50.3629C146.033 50.9723 144.796 51.277 143.362 51.277ZM143.381 48.2301C144.033 48.2301 144.578 48.0455 145.015 47.6761C145.452 47.3007 145.781 46.7898 146.003 46.1435C146.23 45.4972 146.344 44.7616 146.344 43.9368C146.344 43.112 146.23 42.3764 146.003 41.7301C145.781 41.0838 145.452 40.5729 145.015 40.1974C144.578 39.822 144.033 39.6342 143.381 39.6342C142.722 39.6342 142.168 39.822 141.719 40.1974C141.275 40.5729 140.94 41.0838 140.712 41.7301C140.491 42.3764 140.38 43.112 140.38 43.9368C140.38 44.7616 140.491 45.4972 140.712 46.1435C140.94 46.7898 141.275 47.3007 141.719 47.6761C142.168 48.0455 142.722 48.2301 143.381 48.2301ZM152.9 56.3182V36.8182H156.778V39.2003H156.953C157.125 38.8187 157.375 38.4309 157.701 38.0369C158.033 37.6368 158.464 37.3045 158.993 37.0398C159.529 36.7689 160.194 36.6335 160.988 36.6335C162.022 36.6335 162.976 36.9044 163.85 37.446C164.724 37.9815 165.423 38.791 165.946 39.8743C166.469 40.9515 166.731 42.3026 166.731 43.9276C166.731 45.5095 166.475 46.8452 165.964 47.9347C165.46 49.018 164.77 49.8397 163.896 50.3999C163.028 50.9538 162.056 51.2308 160.979 51.2308C160.215 51.2308 159.566 51.1046 159.03 50.8523C158.501 50.5999 158.067 50.2829 157.729 49.9013C157.39 49.5135 157.131 49.1226 156.953 48.7287H156.833V56.3182H152.9ZM156.75 43.9091C156.75 44.7524 156.867 45.4879 157.101 46.1158C157.335 46.7436 157.673 47.233 158.116 47.5838C158.559 47.9285 159.098 48.1009 159.732 48.1009C160.372 48.1009 160.914 47.9254 161.357 47.5746C161.8 47.2176 162.136 46.7251 162.363 46.0973C162.597 45.4633 162.714 44.7339 162.714 43.9091C162.714 43.0904 162.6 42.3703 162.373 41.7486C162.145 41.1269 161.809 40.6406 161.366 40.2898C160.923 39.9389 160.378 39.7635 159.732 39.7635C159.092 39.7635 158.55 39.9328 158.107 40.2713C157.67 40.6098 157.335 41.09 157.101 41.7116C156.867 42.3333 156.75 43.0658 156.75 43.9091ZM175.816 51.277C174.357 51.277 173.101 50.9815 172.049 50.3906C171.002 49.7936 170.196 48.9503 169.63 47.8608C169.064 46.7652 168.78 45.4695 168.78 43.9737C168.78 42.5149 169.064 41.2346 169.63 40.1328C170.196 39.031 170.993 38.1723 172.021 37.5568C173.055 36.9413 174.268 36.6335 175.659 36.6335C176.595 36.6335 177.465 36.7843 178.272 37.0859C179.084 37.3814 179.792 37.8277 180.395 38.4247C181.005 39.0218 181.479 39.7727 181.817 40.6776C182.156 41.5762 182.325 42.6288 182.325 43.8352V44.9155H170.35V42.478H178.623C178.623 41.9117 178.5 41.41 178.253 40.973C178.007 40.536 177.666 40.1944 177.229 39.9482C176.798 39.6958 176.296 39.5696 175.724 39.5696C175.126 39.5696 174.597 39.7081 174.135 39.9851C173.68 40.2559 173.323 40.6222 173.064 41.0838C172.806 41.5393 172.674 42.0471 172.667 42.6072V44.9247C172.667 45.6264 172.797 46.2327 173.055 46.7436C173.32 47.2545 173.692 47.6484 174.172 47.9254C174.653 48.2024 175.222 48.3409 175.881 48.3409C176.318 48.3409 176.718 48.2794 177.081 48.1562C177.444 48.0331 177.755 47.8485 178.013 47.6023C178.272 47.3561 178.469 47.0545 178.604 46.6974L182.242 46.9375C182.057 47.8116 181.679 48.5748 181.106 49.2273C180.54 49.8736 179.808 50.3783 178.909 50.7415C178.016 51.0985 176.985 51.277 175.816 51.277ZM196.692 40.8622L193.091 41.0838C193.029 40.776 192.897 40.4991 192.694 40.2528C192.491 40.0005 192.223 39.8004 191.89 39.6527C191.564 39.4988 191.173 39.4219 190.718 39.4219C190.108 39.4219 189.595 39.5511 189.176 39.8097C188.757 40.062 188.548 40.4006 188.548 40.8253C188.548 41.1638 188.684 41.45 188.954 41.6839C189.225 41.9179 189.69 42.1056 190.349 42.2472L192.915 42.7642C194.294 43.0473 195.322 43.5028 195.999 44.1307C196.676 44.7585 197.015 45.5833 197.015 46.6051C197.015 47.5346 196.741 48.3501 196.193 49.0518C195.651 49.7536 194.907 50.3014 193.959 50.6953C193.017 51.0831 191.93 51.277 190.699 51.277C188.822 51.277 187.326 50.8861 186.212 50.1044C185.104 49.3165 184.455 48.2455 184.264 46.8913L188.133 46.6882C188.25 47.2607 188.533 47.6977 188.982 47.9993C189.431 48.2947 190.007 48.4425 190.709 48.4425C191.398 48.4425 191.952 48.3101 192.371 48.0455C192.795 47.7746 193.011 47.4268 193.017 47.0021C193.011 46.6451 192.86 46.3527 192.564 46.125C192.269 45.8911 191.814 45.7126 191.198 45.5895L188.742 45.1001C187.357 44.8232 186.326 44.343 185.649 43.6598C184.978 42.9766 184.643 42.1056 184.643 41.0469C184.643 40.1359 184.889 39.3511 185.381 38.6925C185.88 38.0339 186.578 37.526 187.477 37.169C188.382 36.812 189.441 36.6335 190.653 36.6335C192.444 36.6335 193.854 37.0121 194.882 37.7692C195.916 38.5263 196.519 39.5573 196.692 40.8622Z" fill="#F8FAFC"/>
<path d="M198 3H215V80H198" stroke="#581C87" stroke-width="5" stroke-linecap="round" stroke-linejoin="round"/>
</svg>
